<svg width="170" height="48" viewBox="0 0 170 48" fill="none" xmlns="http://www.w3.org/2000/svg">
<rect x="0.625" y="0.5" width="168.625" height="47" rx="7.5" fill="white"/>
<rect x="0.625" y="0.5" width="168.625" height="47" rx="7.5" stroke="#E1E4E8"/>
<path d="M24.125 8C11.6806 8 8.125 11.5556 8.125 24C8.125 36.4444 11.6894 40 24.125 40C36.5606 40 40.125 36.4444 40.125 24C40.125 11.5556 36.5606 8 24.125 8Z" fill="#00AA45"/>
<path fill-rule="evenodd" clip-rule="evenodd" d="M12.2665 12.1415C10.175 14.2329 9.26786 17.8017 9.26786 24C9.26786 30.1978 10.177 33.7668 12.2696 35.8584C14.3623 37.9501 17.9314 38.8571 24.125 38.8571C30.3186 38.8571 33.8877 37.9501 35.9804 35.8584C38.073 33.7668 38.9821 30.1978 38.9821 24C38.9821 17.8022 38.073 14.2332 35.9804 12.1416C33.8877 10.0499 30.3186 9.14286 24.125 9.14286C17.9267 9.14286 14.3579 10.05 12.2665 12.1415ZM8.125 24C8.125 11.5556 11.6806 8 24.125 8C36.5606 8 40.125 11.5556 40.125 24C40.125 36.4444 36.5606 40 24.125 40C11.6894 40 8.125 36.4444 8.125 24Z" fill="#219653"/>
<path fill-rule="evenodd" clip-rule="evenodd" d="M23.5974 15.4287H16.6963V34.8573H22.0589V30.7938H23.5974C27.9709 30.7938 31.5534 27.3743 31.5534 23.1113C31.5534 18.8482 27.9709 15.4287 23.5974 15.4287ZM22.0589 25.5874V20.6351H23.5974C25.0502 20.6351 26.1908 21.7638 26.1908 23.1113C26.1908 24.4587 25.0502 25.5874 23.5974 25.5874H22.0589Z" fill="#24292E"/>
<path fill-rule="evenodd" clip-rule="evenodd" d="M18.4102 14.8574H24.7398C28.8182 14.8574 32.1244 18.0412 32.1244 21.9685C32.1244 25.8959 28.8182 29.0796 24.7398 29.0796H22.6299V33.1431H18.4102V14.8574ZM22.6299 25.0162H24.7398C26.4877 25.0162 27.9047 23.6517 27.9047 21.9685C27.9047 20.2854 26.4877 18.9209 24.7398 18.9209H22.6299V25.0162Z" fill="white"/>
<path fill-rule="evenodd" clip-rule="evenodd" d="M17.8389 14.2861H24.74C29.1134 14.2861 32.696 17.7056 32.696 21.9687C32.696 26.2318 29.1134 29.6512 24.74 29.6512H23.2015V33.7147H17.8389V14.2861ZM18.9817 15.429V32.5719H22.0586V28.5084H24.74C28.5233 28.5084 31.5532 25.5603 31.5532 21.9687C31.5532 18.377 28.5233 15.429 24.74 15.429H18.9817ZM22.0586 18.3496H24.74C26.7829 18.3496 28.4762 19.9498 28.4762 21.9687C28.4762 23.9876 26.7829 25.5877 24.74 25.5877H22.0586V18.3496ZM23.2015 19.4925V24.4449H24.74C26.1928 24.4449 27.3334 23.3161 27.3334 21.9687C27.3334 20.6212 26.1928 19.4925 24.74 19.4925H23.2015Z" fill="#24292E"/>
<path d="M48.8423 19V11.7273H50.1598V17.8956H53.3629V19H48.8423ZM55.7138 19H54.3075L56.8679 11.7273H58.4943L61.0582 19H59.652L57.7095 13.2188H57.6527L55.7138 19ZM55.7599 16.1484H59.5952V17.2067H55.7599V16.1484ZM66.6007 11.7273H67.9181V16.4787C67.9181 16.9995 67.795 17.4576 67.5488 17.853C67.305 18.2483 66.9617 18.5573 66.519 18.7798C66.0763 19 65.559 19.1101 64.9672 19.1101C64.3729 19.1101 63.8545 19 63.4118 18.7798C62.969 18.5573 62.6258 18.2483 62.3819 17.853C62.1381 17.4576 62.0162 16.9995 62.0162 16.4787V11.7273H63.3336V16.3686C63.3336 16.6716 63.3999 16.9415 63.5325 17.1783C63.6674 17.415 63.8568 17.6009 64.1007 17.7358C64.3445 17.8684 64.6333 17.9347 64.9672 17.9347C65.301 17.9347 65.5898 17.8684 65.8336 17.7358C66.0798 17.6009 66.2692 17.415 66.4018 17.1783C66.5344 16.9415 66.6007 16.6716 66.6007 16.3686V11.7273ZM75.3267 11.7273V19H74.1548L70.728 14.0462H70.6676V19H69.3501V11.7273H70.5291L73.9524 16.6847H74.0163V11.7273H75.3267ZM82.9874 14.1811H81.6593C81.6214 13.9633 81.5516 13.7704 81.4498 13.6023C81.348 13.4318 81.2213 13.2874 81.0698 13.169C80.9183 13.0507 80.7454 12.9619 80.5513 12.9027C80.3596 12.8411 80.1524 12.8104 79.9299 12.8104C79.5345 12.8104 79.1841 12.9098 78.8787 13.1087C78.5733 13.3052 78.3342 13.594 78.1614 13.9751C77.9886 14.3539 77.9022 14.8168 77.9022 15.3636C77.9022 15.92 77.9886 16.3887 78.1614 16.7699C78.3366 17.1487 78.5757 17.4351 78.8787 17.6293C79.1841 17.821 79.5333 17.9169 79.9263 17.9169C80.1441 17.9169 80.3477 17.8885 80.5371 17.8317C80.7289 17.7725 80.9005 17.6861 81.052 17.5724C81.2059 17.4588 81.3349 17.3191 81.4391 17.1534C81.5456 16.9877 81.619 16.7983 81.6593 16.5852L82.9874 16.5923C82.9377 16.938 82.83 17.2623 82.6642 17.5653C82.5009 17.8684 82.2866 18.1359 82.0215 18.3679C81.7563 18.5975 81.4462 18.7775 81.0911 18.9077C80.736 19.0355 80.3418 19.0994 79.9086 19.0994C79.2694 19.0994 78.6988 18.9515 78.1969 18.6555C77.695 18.3596 77.2997 17.9323 77.0108 17.3736C76.722 16.8149 76.5776 16.1449 76.5776 15.3636C76.5776 14.58 76.7232 13.91 77.0144 13.3537C77.3056 12.795 77.7021 12.3677 78.204 12.0717C78.7059 11.7758 79.2741 11.6278 79.9086 11.6278C80.3134 11.6278 80.6898 11.6847 81.0378 11.7983C81.3858 11.9119 81.696 12.0788 81.9682 12.299C82.2405 12.5168 82.4642 12.7843 82.6394 13.1016C82.8169 13.4164 82.9329 13.7763 82.9874 14.1811ZM84.1939 19V11.7273H85.5114V14.8061H88.8814V11.7273H90.2024V19H88.8814V15.9105H85.5114V19H84.1939ZM91.6353 19V11.7273H96.3654V12.8317H92.9528V14.8061H96.1204V15.9105H92.9528V17.8956H96.3938V19H91.6353ZM100.174 19H97.7095V11.7273H100.224C100.946 11.7273 101.566 11.8729 102.085 12.1641C102.605 12.4529 103.005 12.8684 103.285 13.4105C103.564 13.9527 103.704 14.6013 103.704 15.3565C103.704 16.1141 103.563 16.7652 103.281 17.3097C103.002 17.8542 102.598 18.272 102.07 18.5632C101.545 18.8544 100.913 19 100.174 19ZM99.027 17.8601H100.11C100.617 17.8601 101.039 17.7678 101.378 17.5831C101.716 17.3961 101.971 17.1179 102.141 16.7486C102.312 16.3769 102.397 15.9129 102.397 15.3565C102.397 14.8002 102.312 14.3385 102.141 13.9716C101.971 13.6023 101.719 13.3265 101.385 13.1442C101.054 12.9595 100.642 12.8672 100.149 12.8672H99.027V17.8601ZM113.935 15.3636C113.935 16.1473 113.788 16.8184 113.494 17.3771C113.203 17.9335 112.805 18.3596 112.301 18.6555C111.799 18.9515 111.23 19.0994 110.593 19.0994C109.956 19.0994 109.386 18.9515 108.881 18.6555C108.379 18.3572 107.982 17.9299 107.688 17.3736C107.397 16.8149 107.251 16.1449 107.251 15.3636C107.251 14.58 107.397 13.91 107.688 13.3537C107.982 12.795 108.379 12.3677 108.881 12.0717C109.386 11.7758 109.956 11.6278 110.593 11.6278C111.23 11.6278 111.799 11.7758 112.301 12.0717C112.805 12.3677 113.203 12.795 113.494 13.3537C113.788 13.91 113.935 14.58 113.935 15.3636ZM112.61 15.3636C112.61 14.812 112.524 14.3468 112.351 13.968C112.18 13.5869 111.944 13.2992 111.641 13.1051C111.338 12.9086 110.988 12.8104 110.593 12.8104C110.198 12.8104 109.848 12.9086 109.545 13.1051C109.242 13.2992 109.004 13.5869 108.832 13.968C108.661 14.3468 108.576 14.812 108.576 15.3636C108.576 15.9152 108.661 16.3816 108.832 16.7628C109.004 17.1416 109.242 17.4292 109.545 17.6257C109.848 17.8198 110.198 17.9169 110.593 17.9169C110.988 17.9169 111.338 17.8198 111.641 17.6257C111.944 17.4292 112.18 17.1416 112.351 16.7628C112.524 16.3816 112.61 15.9152 112.61 15.3636ZM121.157 11.7273V19H119.985L116.558 14.0462H116.498V19H115.18V11.7273H116.359L119.782 16.6847H119.846V11.7273H121.157Z" fill="#6A737D"/>
<path d="M57.9186 29.7381C57.9186 30.4259 57.7414 31.0212 57.3869 31.5238C57.0377 32.0265 56.5403 32.4153 55.8948 32.6905C55.2546 32.9656 54.498 33.1032 53.625 33.1032C53.043 33.1032 52.5112 33.0423 52.0298 32.9206C51.5483 32.7989 51.1276 32.627 50.7679 32.4048L50.879 31.6984C51.0694 31.8307 51.2758 31.9418 51.498 32.0317C51.7202 32.1164 51.9557 32.1825 52.2044 32.2302C52.453 32.2725 52.7123 32.2936 52.9821 32.2936C53.4689 32.2936 53.9028 32.1931 54.2837 31.9921C54.6647 31.791 54.9636 31.4947 55.1806 31.1032C55.3975 30.7116 55.5059 30.2354 55.5059 29.6746C55.5059 29.0238 55.3763 28.4603 55.1171 27.9841C54.8631 27.5079 54.5033 27.1376 54.0377 26.873C53.5721 26.6085 53.0245 26.4762 52.3948 26.4762H51.7679V35.4762C51.7679 35.5926 51.7996 35.6931 51.8631 35.7778C51.9266 35.8571 52.0271 35.9074 52.1647 35.9286L52.8552 36.0238C52.9874 36.0503 53.0827 36.0952 53.1409 36.1587C53.1991 36.2222 53.2282 36.3148 53.2282 36.4365C53.2282 36.5476 53.1885 36.6376 53.1091 36.7063C53.0351 36.7698 52.916 36.8016 52.752 36.8016H48.6091C48.4451 36.8016 48.3234 36.7698 48.244 36.7063C48.1647 36.6376 48.125 36.5476 48.125 36.4365C48.125 36.2354 48.2361 36.1005 48.4583 36.0317L48.9187 35.9286C49.0456 35.8915 49.1409 35.836 49.2044 35.7619C49.2731 35.6878 49.3075 35.5926 49.3075 35.4762V27.0159C49.3075 26.8995 49.2731 26.8042 49.2044 26.7302C49.1409 26.6561 49.0456 26.6005 48.9187 26.5635L48.4583 26.4603C48.2361 26.3915 48.125 26.2566 48.125 26.0556C48.125 25.9392 48.1647 25.8492 48.244 25.7857C48.3234 25.7222 48.4451 25.6905 48.6091 25.6905H52.4583C53.6118 25.6905 54.5959 25.8651 55.4107 26.2143C56.2255 26.5582 56.8472 27.037 57.2758 27.6508C57.7044 28.2593 57.9186 28.955 57.9186 29.7381Z" fill="#0D0D0D"/>
<path d="M65.5826 32.1111C65.5826 32.3915 65.5032 32.6085 65.3445 32.7619C65.1858 32.91 64.953 32.9841 64.6461 32.9841H59.6937V32.3809H62.9397C63.2096 32.3809 63.3445 32.2593 63.3445 32.0159C63.3445 31.3175 63.2175 30.7884 62.9635 30.4286C62.7096 30.0635 62.3683 29.881 61.9397 29.881C61.6117 29.881 61.3207 29.9815 61.0667 30.1825C60.8127 30.3836 60.6143 30.672 60.4715 31.0476C60.3286 31.418 60.2572 31.8677 60.2572 32.3968C60.2572 33.418 60.4953 34.1852 60.9715 34.6984C61.453 35.2116 62.0932 35.4682 62.8921 35.4682C63.3577 35.4682 63.7651 35.3757 64.1143 35.1905C64.4688 35.0053 64.744 34.7407 64.9397 34.3968C65.035 34.291 65.109 34.2196 65.1619 34.1825C65.2201 34.1455 65.2783 34.127 65.3365 34.127C65.4212 34.127 65.4821 34.1667 65.5191 34.246C65.5561 34.3201 65.5746 34.41 65.5746 34.5159C65.5535 34.9603 65.3948 35.373 65.0985 35.754C64.8022 36.1296 64.4027 36.4312 63.9 36.6587C63.3974 36.8862 62.8207 37 62.1699 37C61.4027 37 60.7228 36.8439 60.1302 36.5317C59.5376 36.2143 59.072 35.7725 58.7334 35.2063C58.4 34.6349 58.2334 33.9683 58.2334 33.2063C58.2334 32.4074 58.3921 31.6984 58.7096 31.0794C59.0323 30.4603 59.4926 29.9762 60.0905 29.627C60.6884 29.2778 61.4027 29.1032 62.2334 29.1032C62.9424 29.1032 63.5455 29.2328 64.0429 29.4921C64.5455 29.746 64.9265 30.1005 65.1858 30.5556C65.4503 31.0053 65.5826 31.5238 65.5826 32.1111Z" fill="#0D0D0D"/>
<path d="M73.7287 32.1111C73.7287 32.3915 73.6493 32.6085 73.4906 32.7619C73.3318 32.91 73.099 32.9841 72.7922 32.9841H67.8398V32.3809H71.0858C71.3556 32.3809 71.4906 32.2593 71.4906 32.0159C71.4906 31.3175 71.3636 30.7884 71.1096 30.4286C70.8556 30.0635 70.5144 29.881 70.0858 29.881C69.7578 29.881 69.4668 29.9815 69.2128 30.1825C68.9588 30.3836 68.7604 30.672 68.6175 31.0476C68.4747 31.418 68.4033 31.8677 68.4033 32.3968C68.4033 33.418 68.6414 34.1852 69.1175 34.6984C69.599 35.2116 70.2392 35.4682 71.0382 35.4682C71.5038 35.4682 71.9112 35.3757 72.2604 35.1905C72.6149 35.0053 72.89 34.7407 73.0858 34.3968C73.181 34.291 73.2551 34.2196 73.308 34.1825C73.3662 34.1455 73.4244 34.127 73.4826 34.127C73.5673 34.127 73.6281 34.1667 73.6652 34.246C73.7022 34.3201 73.7207 34.41 73.7207 34.5159C73.6996 34.9603 73.5408 35.373 73.2445 35.754C72.9482 36.1296 72.5488 36.4312 72.0461 36.6587C71.5435 36.8862 70.9668 37 70.316 37C69.5488 37 68.8689 36.8439 68.2763 36.5317C67.6837 36.2143 67.2181 35.7725 66.8795 35.2063C66.5461 34.6349 66.3795 33.9683 66.3795 33.2063C66.3795 32.4074 66.5382 31.6984 66.8556 31.0794C67.1784 30.4603 67.6387 29.9762 68.2366 29.627C68.8345 29.2778 69.5488 29.1032 70.3795 29.1032C71.0884 29.1032 71.6916 29.2328 72.189 29.4921C72.6916 29.746 73.0726 30.1005 73.3318 30.5556C73.5964 31.0053 73.7287 31.5238 73.7287 32.1111Z" fill="#0D0D0D"/>
<path d="M77.4303 32.5952C77.4303 31.828 77.5388 31.1852 77.7557 30.6667C77.9726 30.1481 78.2583 29.7593 78.6128 29.5C78.9673 29.2354 79.3483 29.1032 79.7557 29.1032C80.2583 29.1032 80.6472 29.246 80.9224 29.5317C81.1975 29.8175 81.3351 30.2275 81.3351 30.7619C81.3351 31.2381 81.2372 31.5926 81.0414 31.8254C80.8456 32.0582 80.5917 32.1746 80.2795 32.1746C79.962 32.1746 79.7213 32.0899 79.5573 31.9206C79.3933 31.7513 79.3112 31.5159 79.3112 31.2143V30.9286C79.306 30.7593 79.2663 30.6349 79.1922 30.5556C79.1181 30.4709 78.9964 30.4286 78.8271 30.4286C78.6419 30.4286 78.462 30.5053 78.2874 30.6587C78.1181 30.8122 77.9779 31.045 77.8668 31.3571C77.761 31.6693 77.7081 32.0688 77.7081 32.5556L77.4303 32.5952ZM77.5811 29.6508L77.7081 31.4524V35.5238C77.7081 35.6772 77.7372 35.791 77.7954 35.8651C77.8589 35.9339 77.97 35.9815 78.1287 36.0079L78.8112 36.1111C78.9329 36.1323 79.0229 36.172 79.0811 36.2302C79.1446 36.2884 79.1763 36.3677 79.1763 36.4682C79.1763 36.5741 79.1366 36.6561 79.0573 36.7143C78.9832 36.7725 78.8747 36.8016 78.7319 36.8016H75.0255C74.8774 36.8016 74.7689 36.7725 74.7001 36.7143C74.6314 36.6561 74.597 36.5767 74.597 36.4762C74.597 36.3968 74.6208 36.3307 74.6684 36.2778C74.716 36.2196 74.7901 36.172 74.8906 36.1349L75.2001 36.0556C75.2954 36.0238 75.3642 35.9709 75.4065 35.8968C75.4541 35.8175 75.4779 35.6958 75.4779 35.5317V31C75.4779 30.8624 75.4568 30.7645 75.4144 30.7063C75.3774 30.6481 75.3139 30.6111 75.2239 30.5952L74.8033 30.5635C74.7081 30.5423 74.6393 30.5079 74.597 30.4603C74.5546 30.4127 74.5335 30.3518 74.5335 30.2778C74.5335 30.1878 74.5599 30.1164 74.6128 30.0635C74.6657 30.0106 74.761 29.9577 74.8985 29.9048L76.343 29.381C76.6023 29.2804 76.7927 29.2169 76.9144 29.1905C77.0361 29.1587 77.1314 29.1429 77.2001 29.1429C77.3165 29.1429 77.4038 29.1825 77.462 29.2619C77.5202 29.336 77.5599 29.4656 77.5811 29.6508Z" fill="#0D0D0D"/>
<path d="M84.994 25.5079V35.5317C84.994 35.6958 85.0152 35.8175 85.0575 35.8968C85.1051 35.9709 85.1766 36.0238 85.2718 36.0556L85.5734 36.1349C85.6739 36.1667 85.748 36.2116 85.7956 36.2698C85.8432 36.3227 85.867 36.3915 85.867 36.4762C85.867 36.5767 85.8327 36.6561 85.7639 36.7143C85.6951 36.7725 85.584 36.8016 85.4305 36.8016H82.3036C82.1554 36.8016 82.0469 36.7725 81.9782 36.7143C81.9094 36.6561 81.875 36.5767 81.875 36.4762C81.875 36.3968 81.8988 36.3307 81.9464 36.2778C81.994 36.2196 82.0681 36.172 82.1686 36.1349L82.4782 36.0556C82.5734 36.0185 82.6422 35.963 82.6845 35.8889C82.7321 35.8148 82.7559 35.6958 82.7559 35.5317V26.8413C82.7559 26.709 82.7348 26.6138 82.6924 26.5556C82.6554 26.4974 82.5919 26.4603 82.502 26.4444L82.0813 26.4127C81.9861 26.3862 81.9173 26.3492 81.875 26.3016C81.8327 26.254 81.8115 26.1931 81.8115 26.119C81.8115 26.0344 81.8379 25.9656 81.8909 25.9127C81.9438 25.8598 82.039 25.8069 82.1766 25.754L83.6528 25.2143C83.8644 25.1349 84.0311 25.0794 84.1528 25.0476C84.2745 25.0159 84.3803 25 84.4702 25C84.6448 25 84.7745 25.0476 84.8591 25.1429C84.9491 25.2328 84.994 25.3545 84.994 25.5079Z" fill="#0D0D0D"/>
<path d="M89.7454 29.6429V35.5317C89.7454 35.6958 89.7666 35.8175 89.8089 35.8968C89.8565 35.9709 89.9279 36.0238 90.0232 36.0556L90.3248 36.1349C90.4253 36.1667 90.4994 36.2116 90.547 36.2698C90.5946 36.3227 90.6184 36.3915 90.6184 36.4762C90.6184 36.5767 90.584 36.6561 90.5152 36.7143C90.4465 36.7725 90.3353 36.8016 90.1819 36.8016H87.0549C86.9068 36.8016 86.7983 36.7725 86.7295 36.7143C86.6607 36.6561 86.6263 36.5767 86.6263 36.4762C86.6263 36.3968 86.6502 36.3307 86.6978 36.2778C86.7454 36.2196 86.8195 36.172 86.92 36.1349L87.2295 36.0556C87.3248 36.0185 87.3935 35.963 87.4359 35.8889C87.4835 35.8148 87.5073 35.6958 87.5073 35.5317V30.9841C87.5073 30.8466 87.4861 30.7487 87.4438 30.6905C87.4068 30.6323 87.3433 30.5952 87.2533 30.5794L86.8327 30.5476C86.7375 30.5265 86.6687 30.4921 86.6263 30.4444C86.584 30.3968 86.5629 30.336 86.5629 30.2619C86.5629 30.172 86.5867 30.1005 86.6343 30.0476C86.6872 29.9947 86.7851 29.9418 86.9279 29.8889L88.4041 29.3492C88.6105 29.2751 88.7745 29.2222 88.8962 29.1905C89.0232 29.1587 89.129 29.1429 89.2136 29.1429C89.3935 29.1429 89.5258 29.1905 89.6105 29.2857C89.7004 29.3757 89.7454 29.4947 89.7454 29.6429ZM88.4517 27.9286C88.0285 27.9286 87.6872 27.8201 87.4279 27.6032C87.174 27.381 87.047 27.0926 87.047 26.7381C87.047 26.3836 87.174 26.1005 87.4279 25.8889C87.6872 25.672 88.0285 25.5635 88.4517 25.5635C88.8803 25.5635 89.2216 25.672 89.4756 25.8889C89.7348 26.1005 89.8644 26.3836 89.8644 26.7381C89.8644 27.0926 89.7348 27.381 89.4756 27.6032C89.2216 27.8201 88.8803 27.9286 88.4517 27.9286Z" fill="#0D0D0D"/>
<path d="M94.4499 29.8175C94.0848 29.8175 93.7991 29.9101 93.5927 30.0952C93.3917 30.2751 93.2911 30.5053 93.2911 30.7857C93.2911 30.9603 93.3282 31.119 93.4023 31.2619C93.4816 31.3995 93.6298 31.5265 93.8467 31.6429C94.0636 31.7593 94.3811 31.8677 94.7991 31.9683C95.6139 32.1376 96.2435 32.3492 96.688 32.6032C97.1324 32.8571 97.4419 33.1508 97.6165 33.4841C97.7911 33.8122 97.8784 34.1799 97.8784 34.5873C97.8784 35.3227 97.6192 35.91 97.1007 36.3492C96.5822 36.7831 95.8282 37 94.8388 37C94.4896 37 94.2038 36.9682 93.9816 36.9048C93.7594 36.8466 93.5769 36.7884 93.434 36.7302C93.2911 36.6667 93.1642 36.6349 93.0531 36.6349C92.9419 36.6349 92.8494 36.6667 92.7753 36.7302C92.7065 36.7884 92.6404 36.8466 92.5769 36.9048C92.5134 36.9682 92.4287 37 92.3229 37C92.2277 37 92.1562 36.9735 92.1086 36.9206C92.061 36.8677 92.016 36.7698 91.9737 36.627L91.4499 35.0317C91.3917 34.8466 91.3732 34.6958 91.3943 34.5794C91.4208 34.463 91.4922 34.3809 91.6086 34.3333C91.7303 34.291 91.8361 34.2936 91.9261 34.3413C92.016 34.3836 92.1007 34.4656 92.18 34.5873C92.4181 35 92.6721 35.3307 92.9419 35.5794C93.2118 35.8227 93.4949 36 93.7911 36.1111C94.0927 36.2222 94.3996 36.2778 94.7118 36.2778C95.1668 36.2778 95.5054 36.1852 95.7277 36C95.9552 35.8148 96.0689 35.5688 96.0689 35.2619C96.0689 35.0767 96.0213 34.91 95.9261 34.7619C95.8308 34.6085 95.6536 34.4709 95.3943 34.3492C95.1351 34.2222 94.7594 34.1032 94.2673 33.9921C93.5848 33.8439 93.0398 33.6534 92.6324 33.4206C92.2303 33.1825 91.9393 32.8968 91.7594 32.5635C91.5848 32.2302 91.4975 31.8439 91.4975 31.4048C91.4975 30.9444 91.6165 30.5423 91.8546 30.1984C92.0927 29.8545 92.4234 29.5873 92.8467 29.3968C93.27 29.2011 93.7594 29.1032 94.315 29.1032C94.6747 29.1032 94.9631 29.1349 95.18 29.1984C95.397 29.2619 95.5742 29.328 95.7118 29.3968C95.8546 29.4603 95.9843 29.4921 96.1007 29.4921C96.2277 29.4921 96.3282 29.4603 96.4023 29.3968C96.4763 29.328 96.5478 29.2619 96.6165 29.1984C96.6853 29.1349 96.77 29.1032 96.8705 29.1032C96.9499 29.1032 97.016 29.1323 97.0689 29.1905C97.1271 29.2434 97.1695 29.3386 97.1959 29.4762L97.5848 30.9921C97.6218 31.1878 97.6298 31.3413 97.6086 31.4524C97.5927 31.5635 97.524 31.6429 97.4023 31.6905C97.2859 31.7381 97.1827 31.7328 97.0927 31.6746C97.0028 31.6164 96.9128 31.5132 96.8229 31.3651C96.4949 30.8042 96.1218 30.4074 95.7038 30.1746C95.2911 29.9365 94.8732 29.8175 94.4499 29.8175Z" fill="#0D0D0D"/>
<path d="M99.1527 30.0635L98.7877 29.9524C98.6607 29.9101 98.5707 29.8624 98.5178 29.8095C98.4649 29.7513 98.4385 29.6852 98.4385 29.6111C98.4385 29.5053 98.4729 29.4259 98.5416 29.373C98.6157 29.3148 98.7136 29.2857 98.8353 29.2857H99.3194C99.4464 29.2857 99.5522 29.2619 99.6369 29.2143C99.7215 29.1667 99.8088 29.082 99.8988 28.9603L100.764 27.746C100.875 27.6085 100.981 27.5079 101.081 27.4444C101.182 27.381 101.282 27.3492 101.383 27.3492C101.494 27.3492 101.581 27.3836 101.645 27.4524C101.708 27.5212 101.74 27.6217 101.74 27.754V34.5397C101.74 34.91 101.811 35.1931 101.954 35.3889C102.102 35.5847 102.306 35.6825 102.565 35.6825C102.761 35.6825 102.912 35.6455 103.018 35.5714C103.129 35.4921 103.216 35.4021 103.28 35.3016C103.343 35.2011 103.404 35.1138 103.462 35.0397C103.526 34.9603 103.605 34.918 103.7 34.9127C103.78 34.9127 103.841 34.9391 103.883 34.9921C103.931 35.045 103.954 35.1323 103.954 35.254C103.949 35.5556 103.849 35.836 103.653 36.0952C103.462 36.3545 103.195 36.5661 102.851 36.7302C102.507 36.8889 102.116 36.9682 101.677 36.9682C100.999 36.9682 100.468 36.7989 100.081 36.4603C99.7004 36.1164 99.5099 35.6005 99.5099 34.9127V30.5317C99.5099 30.3942 99.4808 30.2936 99.4226 30.2302C99.3697 30.1614 99.2797 30.1058 99.1527 30.0635ZM100.859 30.0714V29.2857H103.486C103.608 29.2857 103.703 29.3122 103.772 29.3651C103.846 29.4127 103.883 29.4841 103.883 29.5794C103.883 29.7169 103.814 29.8333 103.677 29.9286C103.539 30.0238 103.317 30.0714 103.01 30.0714H100.859Z" fill="#0D0D0D"/>
<line x1="108.814" y1="25.1875" x2="108.814" y2="36.8125" stroke="#0D0D0D" stroke-width="0.375" stroke-linecap="round"/>
<path d="M117.926 30.7955L117.023 31.0511C116.966 30.9006 116.882 30.7543 116.771 30.6122C116.663 30.4673 116.516 30.348 116.328 30.2543C116.141 30.1605 115.901 30.1136 115.608 30.1136C115.207 30.1136 114.874 30.206 114.607 30.3906C114.342 30.5724 114.21 30.804 114.21 31.0852C114.21 31.3352 114.301 31.5327 114.483 31.6776C114.665 31.8224 114.949 31.9432 115.335 32.0398L116.307 32.2784C116.892 32.4205 117.328 32.6378 117.615 32.9304C117.902 33.2202 118.045 33.5938 118.045 34.0511C118.045 34.4261 117.937 34.7614 117.722 35.0568C117.509 35.3523 117.21 35.5852 116.827 35.7557C116.443 35.9261 115.997 36.0114 115.489 36.0114C114.821 36.0114 114.268 35.8665 113.831 35.5767C113.393 35.2869 113.116 34.8636 113 34.3068L113.955 34.0682C114.045 34.4205 114.217 34.6847 114.47 34.8608C114.726 35.0369 115.06 35.125 115.472 35.125C115.94 35.125 116.312 35.0256 116.588 34.8267C116.866 34.625 117.006 34.3835 117.006 34.1023C117.006 33.875 116.926 33.6847 116.767 33.5313C116.608 33.375 116.364 33.2585 116.034 33.1818L114.943 32.9261C114.344 32.7841 113.903 32.5639 113.622 32.2656C113.344 31.9645 113.205 31.5881 113.205 31.1364C113.205 30.767 113.308 30.4403 113.516 30.1563C113.726 29.8722 114.011 29.6491 114.372 29.4872C114.736 29.3253 115.148 29.2443 115.608 29.2443C116.256 29.2443 116.764 29.3864 117.134 29.6705C117.506 29.9545 117.77 30.3295 117.926 30.7955Z" fill="#0D0D0D"/>
<path d="M119.559 38.3295V29.3295H120.531V30.3693H120.65C120.724 30.2557 120.826 30.1108 120.957 29.9347C121.091 29.7557 121.281 29.5966 121.528 29.4574C121.778 29.3153 122.116 29.2443 122.542 29.2443C123.093 29.2443 123.579 29.3821 124 29.6577C124.42 29.9332 124.748 30.3239 124.984 30.8295C125.22 31.3352 125.338 31.9318 125.338 32.6193C125.338 33.3125 125.22 33.9134 124.984 34.4219C124.748 34.9276 124.422 35.3196 124.004 35.598C123.586 35.8736 123.105 36.0114 122.559 36.0114C122.139 36.0114 121.802 35.9418 121.549 35.8026C121.297 35.6605 121.102 35.5 120.966 35.321C120.829 35.1392 120.724 34.9886 120.65 34.8693H120.565V38.3295H119.559ZM120.548 32.6023C120.548 33.0966 120.62 33.5327 120.765 33.9105C120.91 34.2855 121.122 34.5795 121.4 34.7926C121.679 35.0028 122.02 35.108 122.423 35.108C122.843 35.108 123.194 34.9972 123.475 34.7756C123.76 34.5511 123.973 34.25 124.115 33.8722C124.26 33.4915 124.332 33.0682 124.332 32.6023C124.332 32.142 124.261 31.7273 124.119 31.358C123.98 30.9858 123.768 30.6918 123.484 30.4759C123.203 30.2571 122.849 30.1477 122.423 30.1477C122.014 30.1477 121.67 30.2514 121.392 30.4588C121.113 30.6634 120.903 30.9503 120.761 31.3196C120.619 31.6861 120.548 32.1136 120.548 32.6023Z" fill="#0D0D0D"/>
<path d="M129.531 36.0114C128.94 36.0114 128.422 35.8707 127.975 35.5895C127.532 35.3082 127.186 34.9148 126.936 34.4091C126.689 33.9034 126.565 33.3125 126.565 32.6364C126.565 31.9545 126.689 31.3594 126.936 30.8509C127.186 30.3423 127.532 29.9474 127.975 29.6662C128.422 29.3849 128.94 29.2443 129.531 29.2443C130.122 29.2443 130.639 29.3849 131.082 29.6662C131.528 29.9474 131.875 30.3423 132.122 30.8509C132.372 31.3594 132.497 31.9545 132.497 32.6364C132.497 33.3125 132.372 33.9034 132.122 34.4091C131.875 34.9148 131.528 35.3082 131.082 35.5895C130.639 35.8707 130.122 36.0114 129.531 36.0114ZM129.531 35.108C129.98 35.108 130.349 34.9929 130.639 34.7628C130.929 34.5327 131.143 34.2301 131.282 33.8551C131.422 33.4801 131.491 33.0739 131.491 32.6364C131.491 32.1989 131.422 31.7912 131.282 31.4134C131.143 31.0355 130.929 30.7301 130.639 30.4972C130.349 30.2642 129.98 30.1477 129.531 30.1477C129.082 30.1477 128.713 30.2642 128.423 30.4972C128.133 30.7301 127.919 31.0355 127.779 31.4134C127.64 31.7912 127.571 32.1989 127.571 32.6364C127.571 33.0739 127.64 33.4801 127.779 33.8551C127.919 34.2301 128.133 34.5327 128.423 34.7628C128.713 34.9929 129.082 35.108 129.531 35.108Z" fill="#0D0D0D"/>
<path d="M136.879 29.3295V30.1818H133.487V29.3295H136.879ZM134.475 27.7614H135.481V34C135.481 34.2841 135.522 34.4972 135.604 34.6392C135.69 34.7784 135.798 34.8722 135.928 34.9205C136.062 34.9659 136.202 34.9886 136.35 34.9886C136.461 34.9886 136.552 34.983 136.623 34.9716C136.694 34.9574 136.751 34.946 136.793 34.9375L136.998 35.8409C136.93 35.8665 136.835 35.892 136.712 35.9176C136.59 35.946 136.435 35.9602 136.248 35.9602C135.964 35.9602 135.685 35.8991 135.413 35.777C135.143 35.6548 134.918 35.4688 134.739 35.2188C134.563 34.9688 134.475 34.6534 134.475 34.2727V27.7614Z" fill="#0D0D0D"/>
<path d="M139.538 27.1477V35.875H138.532V27.1477H139.538Z" fill="#0D0D0D"/>
<path d="M141.38 35.875V29.3295H142.385V35.875H141.38ZM141.891 28.2386C141.695 28.2386 141.526 28.1719 141.384 28.0384C141.245 27.9048 141.175 27.7443 141.175 27.5568C141.175 27.3693 141.245 27.2088 141.384 27.0753C141.526 26.9418 141.695 26.875 141.891 26.875C142.087 26.875 142.255 26.9418 142.394 27.0753C142.536 27.2088 142.607 27.3693 142.607 27.5568C142.607 27.7443 142.536 27.9048 142.394 28.0384C142.255 28.1719 142.087 28.2386 141.891 28.2386Z" fill="#0D0D0D"/>
<path d="M146.869 38.4659C146.384 38.4659 145.966 38.4034 145.616 38.2784C145.267 38.1563 144.976 37.9943 144.743 37.7926C144.513 37.5938 144.33 37.3807 144.193 37.1534L144.994 36.5909C145.085 36.7102 145.2 36.8466 145.339 37C145.479 37.1563 145.669 37.2912 145.911 37.4048C146.155 37.5213 146.474 37.5795 146.869 37.5795C147.398 37.5795 147.834 37.4517 148.178 37.196C148.521 36.9403 148.693 36.5398 148.693 35.9943V34.6648H148.608C148.534 34.7841 148.429 34.9318 148.293 35.108C148.159 35.2813 147.966 35.4361 147.713 35.5724C147.463 35.706 147.125 35.7727 146.699 35.7727C146.17 35.7727 145.696 35.6477 145.276 35.3977C144.858 35.1477 144.527 34.7841 144.283 34.3068C144.041 33.8295 143.92 33.25 143.92 32.5682C143.92 31.8977 144.038 31.3139 144.274 30.8168C144.51 30.3168 144.838 29.9304 145.259 29.6577C145.679 29.3821 146.165 29.2443 146.716 29.2443C147.142 29.2443 147.48 29.3153 147.73 29.4574C147.983 29.5966 148.176 29.7557 148.31 29.9347C148.446 30.1108 148.551 30.2557 148.625 30.3693H148.727V29.3295H149.699V36.0625C149.699 36.625 149.571 37.0824 149.315 37.4347C149.062 37.7898 148.722 38.0497 148.293 38.2145C147.866 38.3821 147.392 38.4659 146.869 38.4659ZM146.835 34.8693C147.239 34.8693 147.58 34.777 147.858 34.5923C148.136 34.4077 148.348 34.142 148.493 33.7955C148.638 33.4489 148.71 33.0341 148.71 32.5511C148.71 32.0795 148.639 31.6634 148.497 31.3026C148.355 30.9418 148.145 30.6591 147.866 30.4545C147.588 30.25 147.244 30.1477 146.835 30.1477C146.409 30.1477 146.054 30.2557 145.77 30.4716C145.489 30.6875 145.277 30.9773 145.135 31.3409C144.996 31.7045 144.926 32.108 144.926 32.5511C144.926 33.0057 144.997 33.4077 145.139 33.7571C145.284 34.1037 145.497 34.3764 145.778 34.5753C146.062 34.7713 146.415 34.8693 146.835 34.8693Z" fill="#0D0D0D"/>
<path d="M152.545 31.9375V35.875H151.54V27.1477H152.545V30.3523H152.631C152.784 30.0142 153.014 29.7457 153.321 29.5469C153.631 29.3452 154.043 29.2443 154.557 29.2443C155.003 29.2443 155.393 29.3338 155.729 29.5128C156.064 29.6889 156.324 29.9602 156.509 30.3267C156.696 30.6903 156.79 31.1534 156.79 31.7159V35.875H155.784V31.7841C155.784 31.2642 155.649 30.8622 155.379 30.5781C155.112 30.2912 154.741 30.1477 154.267 30.1477C153.937 30.1477 153.642 30.2173 153.381 30.3565C153.122 30.4957 152.918 30.6989 152.767 30.9659C152.619 31.233 152.545 31.5568 152.545 31.9375Z" fill="#0D0D0D"/>
<path d="M161.476 29.3295V30.1818H158.084V29.3295H161.476ZM159.073 27.7614H160.078V34C160.078 34.2841 160.12 34.4972 160.202 34.6392C160.287 34.7784 160.395 34.8722 160.526 34.9205C160.659 34.9659 160.8 34.9886 160.948 34.9886C161.059 34.9886 161.149 34.983 161.221 34.9716C161.292 34.9574 161.348 34.946 161.391 34.9375L161.596 35.8409C161.527 35.8665 161.432 35.892 161.31 35.9176C161.188 35.946 161.033 35.9602 160.846 35.9602C160.561 35.9602 160.283 35.8991 160.01 35.777C159.74 35.6548 159.516 35.4688 159.337 35.2188C159.161 34.9688 159.073 34.6534 159.073 34.2727V27.7614Z" fill="#0D0D0D"/>
</svg>
